<svg id="visual" viewBox="0 0 1000 300" width="1000" height="300" xmlns="http://www.w3.org/2000/svg" xmlns:xlink="http://www.w3.org/1999/xlink" version="1.1"><path d="M0 204L23.8 199.5C47.7 195 95.3 186 143 184.5C190.7 183 238.3 189 286 190.2C333.7 191.3 381.3 187.7 428.8 184.7C476.3 181.7 523.7 179.3 571.2 185C618.7 190.7 666.3 204.3 714 204.3C761.7 204.3 809.3 190.7 857 188.2C904.7 185.7 952.3 194.3 976.2 198.7L1000 203L1000 301L976.2 301C952.3 301 904.7 301 857 301C809.3 301 761.7 301 714 301C666.3 301 618.7 301 571.2 301C523.7 301 476.3 301 428.8 301C381.3 301 333.7 301 286 301C238.3 301 190.7 301 143 301C95.3 301 47.7 301 23.8 301L0 301Z" fill="#c62368"></path><path d="M0 201L23.8 201.2C47.7 201.3 95.3 201.7 143 208C190.7 214.3 238.3 226.7 286 231.8C333.7 237 381.3 235 428.8 228.7C476.3 222.3 523.7 211.7 571.2 212.3C618.7 213 666.3 225 714 227C761.7 229 809.3 221 857 216C904.7 211 952.3 209 976.2 208L1000 207L1000 301L976.2 301C952.3 301 904.7 301 857 301C809.3 301 761.7 301 714 301C666.3 301 618.7 301 571.2 301C523.7 301 476.3 301 428.8 301C381.3 301 333.7 301 286 301C238.3 301 190.7 301 143 301C95.3 301 47.7 301 23.8 301L0 301Z" fill="#d53e68"></path><path d="M0 252L23.8 247.8C47.7 243.7 95.3 235.3 143 235.7C190.7 236 238.3 245 286 244.7C333.7 244.3 381.3 234.7 428.8 233C476.3 231.3 523.7 237.7 571.2 239.2C618.7 240.7 666.3 237.3 714 234.3C761.7 231.3 809.3 228.7 857 226C904.7 223.3 952.3 220.7 976.2 219.3L1000 218L1000 301L976.2 301C952.3 301 904.7 301 857 301C809.3 301 761.7 301 714 301C666.3 301 618.7 301 571.2 301C523.7 301 476.3 301 428.8 301C381.3 301 333.7 301 286 301C238.3 301 190.7 301 143 301C95.3 301 47.7 301 23.8 301L0 301Z" fill="#e3556a"></path><path d="M0 262L23.8 259.8C47.7 257.7 95.3 253.3 143 254.2C190.7 255 238.3 261 286 264.5C333.7 268 381.3 269 428.8 269.5C476.3 270 523.7 270 571.2 265.8C618.7 261.7 666.3 253.3 714 252C761.7 250.7 809.3 256.3 857 259.7C904.7 263 952.3 264 976.2 264.5L1000 265L1000 301L976.2 301C952.3 301 904.7 301 857 301C809.3 301 761.7 301 714 301C666.3 301 618.7 301 571.2 301C523.7 301 476.3 301 428.8 301C381.3 301 333.7 301 286 301C238.3 301 190.7 301 143 301C95.3 301 47.7 301 23.8 301L0 301Z" fill="#ef6b6d"></path><path d="M0 284L23.8 280.3C47.7 276.7 95.3 269.3 143 266.7C190.7 264 238.3 266 286 269C333.7 272 381.3 276 428.8 278.8C476.3 281.7 523.7 283.3 571.2 283.7C618.7 284 666.3 283 714 282.3C761.7 281.7 809.3 281.3 857 281.3C904.7 281.3 952.3 281.7 976.2 281.8L1000 282L1000 301L976.2 301C952.3 301 904.7 301 857 301C809.3 301 761.7 301 714 301C666.3 301 618.7 301 571.2 301C523.7 301 476.3 301 428.8 301C381.3 301 333.7 301 286 301C238.3 301 190.7 301 143 301C95.3 301 47.7 301 23.8 301L0 301Z" fill="#fa8072"></path></svg>