<svg viewBox="0 0 293 580" fill="none" xmlns="http://www.w3.org/2000/svg">
<path d="M292.475 133.76V199.44C292.473 200.047 292.232 200.628 291.802 201.057C291.373 201.487 290.792 201.728 290.185 201.73H288.555V543.88C288.555 553.348 284.793 562.428 278.098 569.123C271.403 575.818 262.323 579.58 252.855 579.58H39.0651C34.3775 579.58 29.7359 578.656 25.4053 576.861C21.0748 575.067 17.1401 572.437 13.8259 569.122C10.5117 565.807 7.88301 561.872 6.08985 557.541C4.29668 553.209 3.37418 548.568 3.37503 543.88V213.73H2.19504C1.76693 213.731 1.356 213.562 1.05234 213.26C0.748681 212.958 0.577057 212.548 0.575046 212.12V174.74C0.575008 174.527 0.616877 174.317 0.698276 174.12C0.779676 173.923 0.899004 173.745 1.04944 173.594C1.19988 173.444 1.37848 173.325 1.57505 173.243C1.77161 173.162 1.98229 173.12 2.19504 173.12H3.37503V159.04H2.185C1.73559 159.038 1.30522 158.858 0.988376 158.54C0.671537 158.221 0.494121 157.789 0.49506 157.34V120.47C0.4962 120.022 0.67463 119.593 0.991306 119.276C1.30798 118.96 1.73715 118.781 2.185 118.78H3.375V99.56H2.16501C1.96796 99.5603 1.77278 99.5217 1.59067 99.4464C1.40856 99.3711 1.2431 99.2606 1.10376 99.1213C0.964423 98.9819 0.853949 98.8165 0.77866 98.6344C0.703371 98.4522 0.664749 98.2571 0.665012 98.06V77.94C0.664111 77.541 0.821543 77.1579 1.10276 76.8748C1.38397 76.5917 1.76599 76.4318 2.16501 76.43H3.375V35.69C3.37536 26.2245 7.13566 17.1468 13.8288 10.4538C20.5219 3.76065 29.5996 0.000360017 39.0651 1.52592e-05H252.855C262.321 -2.75326e-05 271.4 3.75982 278.095 10.4527C284.79 17.1456 288.552 26.2235 288.555 35.69V131.47H290.185C290.792 131.472 291.373 131.713 291.802 132.143C292.232 132.572 292.473 133.153 292.475 133.76V133.76Z" fill="#3F3D56"/>
<path d="M156.26 18.3068H121.521C120.117 18.3068 118.979 19.4448 118.979 20.8487V23.8513C118.979 25.2552 120.117 26.3932 121.521 26.3932H156.26C157.664 26.3932 158.802 25.2552 158.802 23.8513V20.8487C158.802 19.4448 157.664 18.3068 156.26 18.3068Z" fill="#E6E8EC"/>
<path d="M169.41 26.9366C171.943 26.9366 173.997 24.8831 173.997 22.35C173.997 19.8169 171.943 17.7633 169.41 17.7633C166.877 17.7633 164.823 19.8169 164.823 22.35C164.823 24.8831 166.877 26.9366 169.41 26.9366Z" fill="#E6E8EC"/>
<path d="M271.46 42.7505V546.841C271.463 550.118 270.753 553.357 269.378 556.333C268.004 559.308 265.998 561.948 263.5 564.071C259.402 567.563 254.194 569.481 248.81 569.481H44.16C40.5188 569.486 36.9302 568.611 33.7 566.931C32.9412 566.542 32.2065 566.108 31.5 565.631C28.4242 563.555 25.9048 560.757 24.163 557.481C22.4212 554.205 21.5102 550.551 21.51 546.841V42.7505C21.5099 39.776 22.0956 36.8307 23.2339 34.0826C24.3721 31.3345 26.0405 28.8375 28.1437 26.7343C30.247 24.631 32.744 22.9626 35.4921 21.8244C38.2401 20.6861 41.1855 20.1004 44.16 20.1005H74.79V24.0305C74.79 28.9768 76.755 33.7205 80.2525 37.218C83.75 40.7156 88.4937 42.6805 93.44 42.6805H197.52C202.466 42.6805 207.21 40.7156 210.708 37.218C214.205 33.7205 216.17 28.9768 216.17 24.0305V20.1005H248.81C251.785 20.0996 254.73 20.6848 257.479 21.8227C260.227 22.9606 262.725 24.629 264.828 26.7324C266.932 28.8358 268.6 31.3331 269.738 34.0816C270.876 36.8301 271.461 39.7758 271.46 42.7505Z" fill="salmon"/>
<path opacity="0.3" d="M272 478.645V547.421C272.003 550.545 271.293 553.633 269.918 556.468C268.543 559.304 266.537 561.821 264.038 563.844C259.94 567.172 254.731 569.001 249.345 569H44.6545C41.0126 569.005 37.4232 568.171 34.1924 566.57C33.4334 566.199 32.6986 565.785 31.992 565.331C28.9156 563.353 26.3957 560.685 24.6535 557.563C22.9114 554.44 22.0002 550.958 22 547.421V478.673C56.3231 449.273 100.843 433.005 146.994 433C193.146 432.995 237.669 449.252 272 478.645Z" fill="white"/>
<path opacity="0.3" d="M259.29 566.911C256.058 568.608 252.461 569.49 248.81 569.481H44.16C40.5188 569.486 36.9302 568.611 33.7 566.931C42.9647 544.649 58.6211 525.61 78.694 512.216C98.7669 498.822 122.357 491.673 146.488 491.671C170.62 491.668 194.211 498.813 214.286 512.204C234.362 525.594 250.021 544.63 259.29 566.911V566.911Z" fill="white"/>
<path opacity="0.3" d="M214.75 568.12C212.794 569.147 210.617 569.681 208.408 569.675H84.5696C82.3662 569.679 80.1946 569.149 78.24 568.132C83.8463 554.649 93.3204 543.128 105.467 535.023C117.614 526.918 131.889 522.592 146.491 522.591C161.093 522.589 175.369 526.913 187.517 535.016C199.665 543.119 209.141 554.638 214.75 568.12V568.12Z" fill="white"/>
<path d="M198.546 215.25C178.017 215.25 155.488 211.341 137.9 198.15C113.413 179.785 83.2432 180.765 62.2466 184.822C48.2998 187.54 34.7628 192.049 21.9722 198.237L21.0474 196.464C33.9941 190.195 47.6968 185.625 61.8149 182.869C83.2241 178.725 114.012 177.735 139.1 196.551C186.1 231.8 270.258 200.141 271.102 199.818L271.818 201.686C256.036 207.311 239.714 211.284 223.112 213.542C214.97 214.653 206.763 215.224 198.546 215.25Z" fill="white"/>
<path opacity="0.3" d="M21.5 197.351C21.5 197.351 90.5 180.638 138.5 203.52C186.5 226.403 271.5 203.351 271.5 203.351" fill="white"/>
<path opacity="0.3" d="M86.6411 223.312C78.3058 223.274 69.993 222.444 61.8149 220.833C47.6968 218.076 33.9941 213.506 21.0474 207.237L21.9722 205.464C34.7628 211.652 48.2998 216.161 62.2466 218.879C83.2422 222.935 113.412 223.916 137.9 205.551C162.966 186.751 198.077 186.804 223.112 190.159C239.714 192.417 256.036 196.39 271.818 202.016L271.102 203.883C270.257 203.559 186.101 171.899 139.1 207.15C122.648 219.49 103.743 223.312 86.6411 223.312Z" fill="white"/>
<path opacity="0.3" d="M86.981 215.259C52.3467 215.259 21.5904 202.833 21.129 202.644L21.8907 200.794C22.5753 201.076 90.9791 228.693 137.991 200.858C185.816 172.539 270.897 197.817 271.75 198.076L271.17 199.99C270.325 199.734 186.077 174.709 139.009 202.579C122.947 212.09 104.469 215.259 86.981 215.259Z" fill="white"/>
<path opacity="0.3" d="M21.51 200.181C21.51 200.181 90.5 223.063 138.5 200.181C186.5 177.299 271.46 198.019 271.46 198.019" fill="white"/>
<path opacity="0.3" d="M21.51 197.351C21.51 197.351 90.5 161.351 138.5 197.351C186.5 233.351 271.46 200.752 271.46 200.752" fill="white"/>
<path d="M146.75 563.675C152.825 563.675 157.75 558.75 157.75 552.675C157.75 546.6 152.825 541.675 146.75 541.675C140.675 541.675 135.75 546.6 135.75 552.675C135.75 558.75 140.675 563.675 146.75 563.675Z" fill="white"/>
</svg>
