<svg id="visual" viewBox="0 0 900 80" width="900" height="80" xmlns="http://www.w3.org/2000/svg" xmlns:xlink="http://www.w3.org/1999/xlink" version="1.1"><path d="M0 38L15 40C30 42 60 46 90 46.7C120 47.3 150 44.7 180 39.5C210 34.3 240 26.7 270 26.2C300 25.7 330 32.3 360 39.7C390 47 420 55 450 54C480 53 510 43 540 34.7C570 26.3 600 19.7 630 21.3C660 23 690 33 720 36C750 39 780 35 810 32.5C840 30 870 29 885 28.5L900 28" fill="none" stroke-linecap="round" stroke-linejoin="miter" stroke="#fa8072" stroke-width="29"></path></svg>